<svg width="15" height="16" viewBox="0 0 15 16" fill="none" xmlns="http://www.w3.org/2000/svg">
<path d="M3.27407 0.655715C2.99848 0.496474 2.68638 0.413232 2.369 0.414317C2.05162 0.415402 1.74009 0.500775 1.46557 0.661897C1.19105 0.823018 0.963172 1.05424 0.804732 1.33242C0.646292 1.6106 0.562846 1.926 0.562744 2.24705V13.7549C0.562846 14.0759 0.646292 14.3913 0.804732 14.6695C0.963172 14.9477 1.19105 15.1789 1.46557 15.34C1.74009 15.5012 2.05162 15.5865 2.369 15.5876C2.68638 15.5887 2.99848 15.5055 3.27407 15.3462L13.2277 9.59138C13.5049 9.43097 13.7352 9.19931 13.8955 8.91986C14.0557 8.64041 14.1401 8.3231 14.1401 8.00005C14.1401 7.677 14.0557 7.35969 13.8955 7.08024C13.7352 6.80079 13.5049 6.56913 13.2277 6.40872L3.27407 0.655715Z" fill="#1A3E3E"/>
</svg>
